<svg width="16" height="16" viewBox="0 0 16 16" fill="none" xmlns="http://www.w3.org/2000/svg">
<path d="M4.93056 5.39014L4.93056 5.39013L4.9296 5.39022C3.61483 5.51432 2.65517 5.93623 2.02556 6.70755C1.39686 7.47776 1.1043 8.58788 1.1043 10.0733V10.16C1.1043 11.8024 1.45533 12.9867 2.22811 13.7595C3.00088 14.5323 4.18521 14.8833 5.82763 14.8833H10.1743C11.8167 14.8833 13.001 14.5323 13.7738 13.7612C14.5466 12.9901 14.8976 11.8091 14.8976 10.1733V10.0867C14.8976 8.59115 14.6 7.47422 13.9612 6.70229C13.3214 5.92934 12.3467 5.51092 11.0121 5.39687C10.7032 5.36758 10.447 5.59608 10.4179 5.89514C10.3884 6.19728 10.6166 6.46054 10.9161 6.48977L10.9168 6.48982C11.9772 6.5793 12.6927 6.86834 13.1453 7.43133C13.5994 7.99606 13.7976 8.84665 13.7976 10.08V10.1667C13.7976 11.5199 13.5577 12.4209 12.9931 12.9855C12.4285 13.5501 11.5275 13.79 10.1743 13.79H5.82763C4.47443 13.79 3.57342 13.5501 3.00882 12.9855C2.44422 12.4209 2.2043 11.5199 2.2043 10.1667V10.08C2.2043 8.85328 2.39921 8.0058 2.84521 7.44098C3.28974 6.87802 3.99194 6.58586 5.03223 6.48979L5.03237 6.48977C5.33994 6.46048 5.56008 6.1893 5.53073 5.88848C5.50129 5.58676 5.22297 5.36821 4.93056 5.39014Z" fill="#6D718C" stroke="#6D718C" stroke-width="0.1"/>
<path d="M7.45 9.92C7.45 10.2209 7.69905 10.47 8 10.47C8.30051 10.47 8.55 10.228 8.55 9.92V1.33333C8.55 1.03238 8.30095 0.783332 8 0.783332C7.69905 0.783332 7.45 1.03238 7.45 1.33333V9.92Z" fill="#6D718C" stroke="#6D718C" stroke-width="0.1"/>
<path d="M7.61056 11.0554C7.72043 11.1652 7.86003 11.2167 7.99924 11.2167C8.13846 11.2167 8.27806 11.1652 8.38793 11.0554L10.6213 8.82202C10.8341 8.60916 10.8341 8.25751 10.6213 8.04465C10.4084 7.83179 10.0567 7.83179 9.84389 8.04465L7.99924 9.88929L6.1546 8.04465C5.94174 7.83179 5.59008 7.83179 5.37722 8.04465C5.16436 8.25751 5.16436 8.60916 5.37722 8.82202L7.61056 11.0554Z" fill="#6D718C" stroke="#6D718C" stroke-width="0.1"/>
</svg>
